<?xml version="1.0" encoding="utf-8"?>
<!-- Generator: Adobe Illustrator 21.0.0, SVG Export Plug-In . SVG Version: 6.00 Build 0)  -->
<svg version="1.1" id="Layer_1" xmlns="http://www.w3.org/2000/svg" xmlns:xlink="http://www.w3.org/1999/xlink" x="0px" y="0px"
	 viewBox="0 0 512 512" style="enable-background:new 0 0 512 512;" xml:space="preserve">
<path d="M443,39.1c-4.9-11.5-13-21.2-23.2-28.1c-5.1-3.4-10.7-6.2-16.8-8.1C397,1,390.6,0,384,0H128c-8.8,0-17.3,1.8-24.9,5
	C91.6,9.9,81.8,18,74.9,28.2c-3.4,5.1-6.2,10.7-8.1,16.8C65,51,64,57.4,64,64v384c0,8.8,1.8,17.3,5,24.9c4.9,11.5,13,21.2,23.2,28.1
	c5.1,3.4,10.7,6.2,16.8,8.1c6,1.9,12.4,2.9,19,2.9h256c8.8,0,17.3-1.8,24.9-5c11.5-4.9,21.2-13,28.1-23.2c3.4-5.1,6.2-10.7,8.1-16.8
	c1.9-6,2.9-12.4,2.9-19V64C448,55.2,446.2,46.7,443,39.1z M416,448c0,4.5-0.9,8.6-2.5,12.5c-2.4,5.7-6.5,10.6-11.6,14.1
	c-2.6,1.7-5.4,3.1-8.4,4c-3,0.9-6.2,1.4-9.5,1.4H128c-4.5,0-8.6-0.9-12.5-2.5c-5.7-2.4-10.6-6.5-14.1-11.6c-1.7-2.6-3.1-5.4-4-8.4
	c-0.9-3-1.4-6.2-1.4-9.5V64c0-4.5,0.9-8.6,2.5-12.5c2.4-5.7,6.5-10.6,11.6-14.1c2.6-1.7,5.4-3.1,8.4-4c3-0.9,6.2-1.4,9.5-1.4h256
	c4.5,0,8.6,0.9,12.5,2.5c5.7,2.4,10.6,6.5,14.1,11.6c1.7,2.6,3.1,5.4,4,8.4c0.9,3,1.4,6.2,1.4,9.5V448z"/>
</svg>
